<svg width="14" height="10" viewBox="0 0 14 10" fill="none" xmlns="http://www.w3.org/2000/svg">
<path fill-rule="evenodd" clip-rule="evenodd" d="M13.1501 1.35956L12.1347 0.315325C12.0943 0.269171 12.0308 0.246094 11.9731 0.246094C11.9097 0.246094 11.852 0.269171 11.8116 0.315325L4.77313 7.40571L2.21159 4.84417C2.16544 4.79802 2.10774 4.77494 2.05005 4.77494C1.99236 4.77494 1.93467 4.79802 1.88851 4.84417L0.861589 5.87109C0.769281 5.9634 0.769281 6.10763 0.861589 6.19994L4.09236 9.43071C4.30005 9.6384 4.5539 9.75955 4.76736 9.75955C5.07313 9.75955 5.33851 9.53456 5.43659 9.44225H5.44236L13.1558 1.6884C13.2366 1.59032 13.2366 1.44609 13.1501 1.35956Z" fill="#4CA34C"/>
</svg>
