<svg width="56" height="56" viewBox="0 0 56 56" fill="none" xmlns="http://www.w3.org/2000/svg">
<g clip-path="url(#clip0)">
<path d="M51.012 9.66995C43.3071 7.5588 35.5569 4.27154 28.5992 0.163644C28.2296 -0.0545583 27.771 -0.0545583 27.4016 0.163644C20.2432 4.38956 12.9118 7.49897 4.98815 9.66995C4.47627 9.81006 4.12146 10.2753 4.12146 10.8061V22.8424C4.12146 35.2371 9.83946 43.4415 14.6364 48.1414C19.8007 53.2017 25.8163 56 28.0004 56C30.1843 56 36.1999 53.2017 41.3641 48.1414C46.161 43.4416 51.8787 35.2372 51.8787 22.8424V10.806C51.8787 10.2753 51.5238 9.81006 51.012 9.66995ZM49.5227 22.8423C49.5227 34.4188 44.1895 42.0745 39.7152 46.4585C34.6368 51.4345 29.2071 53.6439 28.0004 53.6439C26.7936 53.6439 21.3636 51.4345 16.2851 46.4585C11.8109 42.0744 6.4775 34.4188 6.4775 22.8423V11.7003C14.0548 9.54887 21.1114 6.54643 28.0006 2.54298C34.7177 6.44023 42.1265 9.59197 49.5227 11.6998V22.8423Z" fill="#707C87"/>
<path d="M17.5589 11.5685C17.3205 10.9631 16.6365 10.6657 16.031 10.9042C13.9267 11.7334 11.7667 12.4966 9.61128 13.1728C9.12008 13.327 8.78583 13.782 8.78583 14.2967V18.8457C8.78583 19.4963 9.31334 20.0237 9.96379 20.0237C10.6142 20.0237 11.1418 19.4963 11.1418 18.8457V15.1576C13.0754 14.532 15.007 13.84 16.8947 13.0961C17.5001 12.8578 17.7974 12.1739 17.5589 11.5685Z" fill="#707C87"/>
<path d="M19.7967 11.7919C19.9547 11.7919 20.1152 11.7601 20.2691 11.6929L20.2907 11.6835C20.8867 11.4223 21.1551 10.7286 20.8939 10.1328C20.6325 9.53684 19.9348 9.26723 19.3395 9.52819L19.3205 9.5364C18.7242 9.79682 18.4549 10.49 18.7153 11.0861C18.9086 11.5287 19.3422 11.7919 19.7967 11.7919Z" fill="#707C87"/>
<path d="M42.0353 37.984C41.4909 37.6282 40.761 37.7812 40.4047 38.3258C39.434 39.8116 38.2952 41.2343 37.0195 42.5541C35.9703 43.6393 34.8335 44.6508 33.6405 45.5603C33.1233 45.9547 33.0238 46.6938 33.4181 47.2113C33.6501 47.5153 34.0008 47.6752 34.3556 47.6752C34.6048 47.6752 34.8558 47.5965 35.0691 47.4338C36.3559 46.4526 37.582 45.3618 38.7131 44.1917C40.0925 42.765 41.3251 41.225 42.3771 39.6145C42.7331 39.0698 42.5799 38.3398 42.0353 37.984Z" fill="#707C87"/>
<path d="M30.9048 47.4078L30.8373 47.4476C30.2743 47.7736 30.0819 48.4942 30.4079 49.0571C30.6263 49.4345 31.0217 49.6451 31.4284 49.6451C31.6286 49.6451 31.8318 49.5941 32.0174 49.4863L32.0954 49.4405C32.6568 49.1117 32.8454 48.3902 32.5166 47.8287C32.1876 47.2675 31.4659 47.0793 30.9048 47.4078Z" fill="#707C87"/>
<path d="M19.9707 25.5958C19.2474 24.8724 18.2855 24.4743 17.2624 24.4743C16.2393 24.4743 15.2772 24.8725 14.5536 25.5958C13.0603 27.0894 13.0603 29.5197 14.5536 31.0132L21.5094 37.9688C22.2328 38.692 23.1948 39.0902 24.218 39.0902C25.2412 39.0902 26.2031 38.692 26.9266 37.9686L41.4474 23.4478C42.9405 21.9538 42.9405 19.5238 41.4471 18.0308C40.7237 17.3074 39.7618 16.9092 38.7385 16.9092C37.7153 16.9092 36.7533 17.3075 36.0298 18.0308L24.2179 29.8427L19.9707 25.5958ZM37.6958 19.6968C37.9742 19.4184 38.3446 19.2652 38.7386 19.2652C39.1328 19.2652 39.5029 19.4184 39.7815 19.6968C40.3562 20.2715 40.3562 21.2071 39.7812 21.7821L25.2608 36.3027C24.9824 36.5811 24.6119 36.7343 24.218 36.7343C23.824 36.7343 23.4536 36.5811 23.1751 36.3027L16.2195 29.3473C15.6445 28.7724 15.6445 27.8368 16.2193 27.262C16.4978 26.9836 16.8682 26.8302 17.2623 26.8302C17.6564 26.8302 18.0266 26.9834 18.305 27.2618L23.3849 32.3418C23.6059 32.5626 23.9054 32.6868 24.2179 32.6868C24.5304 32.6868 24.8298 32.5627 25.0507 32.3418L37.6958 19.6968Z" fill="#707C87"/>
</g>
<defs>
<clipPath id="clip0">
<rect width="56" height="56" fill="white" transform="translate(0.00012207)"/>
</clipPath>
</defs>
</svg>
